<svg width="22" height="22" viewBox="0 0 22 22" fill="none" xmlns="http://www.w3.org/2000/svg">
<path d="M16.4483 5.5506C17.5392 6.64154 17.5392 8.4103 16.4483 9.50124C15.9986 9.95099 15.4336 10.2153 14.8485 10.2942C13.5394 10.4707 11.9503 10.3778 11.0163 11.3119C10.0822 12.246 10.175 13.835 9.99848 15.1442C9.91957 15.7293 9.65523 16.2943 9.20546 16.7441C8.11452 17.835 6.34576 17.835 5.25482 16.7441C4.16388 15.6531 4.16388 13.8844 5.25482 12.7934C5.70459 12.3437 6.26956 12.0793 6.85475 12.0004C8.1639 11.8239 9.75295 11.9167 10.687 10.9826C11.6211 10.0486 11.5282 8.45955 11.7047 7.1504C11.7836 6.56526 12.0479 6.00034 12.4977 5.5506C13.5886 4.45966 15.3574 4.45966 16.4483 5.5506Z" fill="#EFF3F5"/>
<path d="M16.4483 16.7441C15.3574 17.835 13.5886 17.835 12.4977 16.7441C12.0479 16.2943 11.7836 15.7294 11.7047 15.1443C11.5282 13.8351 11.6211 12.2461 10.687 11.312C9.75295 10.3779 8.1639 10.4708 6.85475 10.2943C6.26956 10.2153 5.70459 9.951 5.25482 9.50124C4.16388 8.4103 4.16388 6.64154 5.25482 5.5506C6.34576 4.45966 8.11452 4.45966 9.20546 5.5506C9.65523 6.00036 9.91957 6.56534 9.99848 7.15053C10.175 8.45967 10.0822 10.0487 11.0163 10.9828C11.9503 11.9169 13.5394 11.824 14.8485 12.0005C15.4336 12.0794 15.9986 12.3437 16.4483 12.7934C17.5392 13.8844 17.5392 15.6531 16.4483 16.7441Z" fill="#EFF3F5"/>
</svg>
