<svg width="22" height="22" viewBox="0 0 22 22" fill="none" xmlns="http://www.w3.org/2000/svg">
<path d="M11 4C12.3645 4 13.4706 5.10612 13.4706 6.47059C13.4706 7.0331 13.2826 7.55167 12.966 7.96692C12.2577 8.896 11.2059 9.83161 11.2059 10.9999C11.2059 12.1682 12.2577 13.1038 12.966 14.0329C13.2826 14.4483 13.4706 14.9669 13.4706 15.5294C13.4706 16.8939 12.3645 18 11 18C9.63553 18 8.52941 16.8939 8.52941 15.5294C8.52941 14.9669 8.71742 14.4483 9.03402 14.0329C9.74231 13.1038 10.7941 12.1682 10.7941 10.9999C10.7941 9.83161 9.74231 8.896 9.03399 7.96692C8.71741 7.55167 8.52941 7.0331 8.52941 6.47059C8.52941 5.10612 9.63553 4 11 4Z" fill="#0A0F13"/>
<path d="M18 11C18 12.3645 16.8939 13.4706 15.5294 13.4706C14.9669 13.4706 14.4483 13.2826 14.0331 12.966C13.104 12.2577 12.1684 11.2059 11.0001 11.2059C9.83182 11.2059 8.89615 12.2577 7.96705 12.966C7.55174 13.2826 7.03312 13.4706 6.47059 13.4706C5.10612 13.4706 4 12.3645 4 11C4 9.63553 5.10612 8.52941 6.47059 8.52941C7.03312 8.52941 7.55174 8.71742 7.96705 9.03402C8.89615 9.74231 9.83182 10.7941 11.0001 10.7941C12.1684 10.7941 13.104 9.74231 14.0331 9.03399C14.4483 8.71741 14.9669 8.52941 15.5294 8.52941C16.8939 8.52941 18 9.63553 18 11Z" fill="#0A0F13"/>
</svg>
