<svg width="22" height="22" viewBox="0 0 22 22" fill="none" xmlns="http://www.w3.org/2000/svg">
<path d="M16.5967 5.59674C17.6877 6.68768 17.6877 8.45644 16.5967 9.54738C16.147 9.99713 15.5821 10.2614 14.9969 10.3403C13.6878 10.5168 12.0988 10.4239 11.1647 11.358C10.2306 12.2921 10.3235 13.8811 10.1469 15.1903C10.068 15.7755 9.80366 16.3405 9.3539 16.7902C8.26296 17.8812 6.4942 17.8812 5.40326 16.7902C4.31232 15.6993 4.31232 13.9305 5.40326 12.8396C5.85302 12.3898 6.418 12.1255 7.00319 12.0466C8.31234 11.87 9.90139 11.9629 10.8355 11.0288C11.7696 10.0947 11.6767 8.50569 11.8532 7.19654C11.932 6.61141 12.1964 6.04649 12.6461 5.59674C13.737 4.5058 15.5058 4.5058 16.5967 5.59674Z" fill="#0A0F13"/>
<path d="M16.5967 16.7902C15.5058 17.8812 13.737 17.8812 12.6461 16.7902C12.1964 16.3405 11.932 15.7756 11.8532 15.1904C11.6767 13.8813 11.7696 12.2923 10.8355 11.3582C9.90139 10.4241 8.31234 10.5169 7.00319 10.3404C6.418 10.2615 5.85302 9.99715 5.40326 9.54738C4.31232 8.45644 4.31232 6.68768 5.40326 5.59674C6.4942 4.5058 8.26296 4.5058 9.3539 5.59674C9.80366 6.04651 10.068 6.61148 10.1469 7.19667C10.3235 8.50582 10.2306 10.0949 11.1647 11.029C12.0988 11.963 13.6878 11.8701 14.9969 12.0466C15.5821 12.1255 16.147 12.3898 16.5967 12.8396C17.6877 13.9305 17.6877 15.6993 16.5967 16.7902Z" fill="#0A0F13"/>
</svg>
