<svg width="22" height="22" viewBox="0 0 22 22" fill="none" xmlns="http://www.w3.org/2000/svg">
<path d="M10.0129 5.27048C10.5134 4.62636 11.4866 4.62636 11.9871 5.27048L12.685 6.1688C12.8129 6.33333 13.018 6.41828 13.2247 6.39233L14.3534 6.25064C15.1627 6.14905 15.851 6.83727 15.7494 7.6466L15.6077 8.77532C15.5817 8.98205 15.6667 9.18714 15.8312 9.31497L16.7295 10.0129C17.3736 10.5134 17.3736 11.4866 16.7295 11.9871L15.8312 12.685C15.6667 12.8129 15.5817 13.018 15.6077 13.2247L15.7494 14.3534C15.851 15.1627 15.1627 15.851 14.3534 15.7494L13.2247 15.6077C13.018 15.5817 12.8129 15.6667 12.685 15.8312L11.9871 16.7295C11.4866 17.3736 10.5134 17.3736 10.0129 16.7295L9.31497 15.8312C9.18714 15.6667 8.98205 15.5817 8.77532 15.6077L7.6466 15.7494C6.83727 15.851 6.14905 15.1627 6.25064 14.3534L6.39233 13.2247C6.41828 13.018 6.33333 12.8129 6.1688 12.685L5.27048 11.9871C4.62636 11.4866 4.62636 10.5134 5.27048 10.0129L6.1688 9.31497C6.33333 9.18714 6.41828 8.98205 6.39233 8.77532L6.25064 7.6466C6.14905 6.83727 6.83727 6.14905 7.6466 6.25064L8.77532 6.39233C8.98205 6.41828 9.18714 6.33333 9.31497 6.1688L10.0129 5.27048Z" fill="#0A0F13"/>
</svg>
