<svg width="22" height="22" viewBox="0 0 22 22" fill="none" xmlns="http://www.w3.org/2000/svg">
<path d="M11.9453 5.38095C11.9453 6.61124 13.4328 7.22737 14.3027 6.35742L14.6104 6.0498C14.9798 5.68036 15.5788 5.68036 15.9482 6.0498C16.3177 6.41925 16.3177 7.01825 15.9482 7.3877L15.6401 7.69582C14.7696 8.5663 15.3861 10.0547 16.6172 10.0547H17.0542C17.5766 10.0547 18 10.4781 18 11.0005C18 11.5228 17.5766 11.9463 17.0542 11.9463H16.6178C15.3873 11.9463 14.771 13.4341 15.6411 14.3042L15.9492 14.6123C16.3186 14.9817 16.3185 15.5807 15.949 15.95C15.5796 16.319 14.981 16.3189 14.6118 15.9497L14.3037 15.6416C13.4334 14.7713 11.9453 15.3877 11.9453 16.6185V17.0542C11.9453 17.5766 11.5219 18 10.9995 18C10.4772 18 10.0537 17.5766 10.0537 17.0542V16.6182C10.0537 15.3871 8.56533 14.7706 7.69485 15.6411L7.38672 15.9492C7.01727 16.3187 6.41828 16.3187 6.04883 15.9492C5.67938 15.5798 5.67938 14.9808 6.04883 14.6113L6.35693 14.3032C7.2267 13.4335 6.6107 11.9463 5.38066 11.9463H4.9458C4.42345 11.9463 4 11.5228 4 11.0005C4 10.4781 4.42345 10.0547 4.9458 10.0547H5.38152C6.61232 10.0547 7.22871 8.5666 6.3584 7.69629L6.0498 7.3877C5.6804 7.01829 5.68051 6.41932 6.05005 6.05005C6.4194 5.68097 7.01799 5.68107 7.38721 6.05029L7.69531 6.3584C8.56562 7.22871 10.0537 6.61232 10.0537 5.38152V4.9458C10.0537 4.42345 10.4772 4 10.9995 4C11.5219 4 11.9453 4.42345 11.9453 4.9458V5.38095Z" fill="#EFF3F5"/>
</svg>
