<svg width="48" height="48" viewBox="0 0 48 48" fill="none" xmlns="http://www.w3.org/2000/svg">
<path d="M14 31.3613C14.0001 32.8585 15.2723 34 16.75 34L30.75 34C32.2277 34 33.4999 32.8585 33.5 31.3613L33.5 18.1387C33.4999 16.6415 32.2277 15.5 30.75 15.5L28.5 15.5L28.5 14.25C28.5 13.8358 28.1642 13.5 27.75 13.5C27.3358 13.5 27 13.8358 27 14.25L27 15.5L20.5 15.5L20.5 14.25C20.5 13.8358 20.1642 13.5 19.75 13.5C19.3358 13.5 19 13.8358 19 14.25L19 15.5L16.75 15.5C15.2723 15.5 14.0001 16.6415 14 18.1387L14 31.3613ZM32 23L32 31.3613C31.9999 31.9504 31.4812 32.5 30.75 32.5L16.75 32.5C16.0188 32.5 15.5001 31.9504 15.5 31.3613L15.5 23L32 23ZM15.5 18.1387C15.5001 17.5496 16.0188 17 16.75 17L19 17L19 18.25C19 18.6642 19.3358 19 19.75 19C20.1642 19 20.5 18.6642 20.5 18.25L20.5 17L27 17L27 18.25C27 18.6642 27.3358 19 27.75 19C28.1642 19 28.5 18.6642 28.5 18.25L28.5 17L30.75 17C31.4812 17 31.9999 17.5496 32 18.1387L32 21.5L15.5 21.5L15.5 18.1387Z" fill="#0A0F13"/>
</svg>
