<svg width="48" height="48" viewBox="0 0 48 48" fill="none" xmlns="http://www.w3.org/2000/svg">
<path d="M23.5332 13L23.5332 12.25H23.5332V13ZM30.0664 19.3398L30.8164 19.3399V19.3398H30.0664ZM29.373 22.0137L30.0473 22.3422L30.0541 22.3283L30.0603 22.3141L29.373 22.0137ZM23.5332 34L22.859 34.3285L23.5333 35.7122L24.2074 34.3285L23.5332 34ZM17.6924 22.0137L17.0052 22.3141L17.0114 22.3283L17.0182 22.3422L17.6924 22.0137ZM17 19.3398H16.25V19.3399L17 19.3398ZM23.5342 16.7334V15.9834H23.5341L23.5342 16.7334ZM20.7344 19.5332L19.9844 19.5332V19.5332H20.7344ZM23.5342 22.333L23.5341 23.083H23.5342V22.333ZM26.334 19.5332H27.084V19.5332L26.334 19.5332ZM23.5332 13L23.5332 13.75C25.1135 13.75 26.5601 14.247 27.6013 15.1708C28.6299 16.0835 29.3164 17.4587 29.3164 19.3398H30.0664H30.8164C30.8164 17.0607 29.9687 15.266 28.5968 14.0488C27.2375 12.8428 25.4175 12.25 23.5332 12.25L23.5332 13ZM30.0664 19.3398L29.3164 19.3398C29.3164 19.6673 29.225 20.1217 29.0865 20.5947C28.9516 21.0556 28.7894 21.4762 28.6858 21.7133L29.373 22.0137L30.0603 22.3141C30.1876 22.0227 30.3721 21.5422 30.5261 21.0162C30.6765 20.5023 30.8164 19.8839 30.8164 19.3399L30.0664 19.3398ZM29.373 22.0137L28.6988 21.6852L22.859 33.6715L23.5332 34L24.2074 34.3285L30.0473 22.3422L29.373 22.0137ZM23.5332 34L24.2074 33.6715L18.3666 21.6851L17.6924 22.0137L17.0182 22.3422L22.859 34.3285L23.5332 34ZM17.6924 22.0137L18.3796 21.7133C18.2761 21.4765 18.1142 21.0559 17.9795 20.595C17.8412 20.1219 17.75 19.6675 17.75 19.3398L17 19.3398L16.25 19.3399C16.25 19.8837 16.3895 20.5018 16.5397 21.0157C16.6934 21.5417 16.8777 22.0223 17.0052 22.3141L17.6924 22.0137ZM17 19.3398H17.75C17.75 17.4587 18.4365 16.0834 19.4651 15.1708C20.5063 14.247 21.9529 13.75 23.5332 13.75V13V12.25C21.6489 12.25 19.8289 12.8427 18.4696 14.0488C17.0977 15.266 16.25 17.0607 16.25 19.3398H17ZM23.5342 16.7334L23.5341 15.9834C21.5737 15.9835 19.9845 17.5727 19.9844 19.5332L20.7344 19.5332L21.4844 19.5333C21.4845 18.4012 22.4022 17.4835 23.5342 17.4834L23.5342 16.7334ZM20.7344 19.5332H19.9844C19.9844 21.4938 21.5737 23.0829 23.5341 23.083L23.5342 22.333L23.5342 21.583C22.402 21.5829 21.4844 20.6653 21.4844 19.5332H20.7344ZM23.5342 22.333V23.083C25.4948 23.083 27.084 21.4938 27.084 19.5332H26.334H25.584C25.584 20.6654 24.6664 21.583 23.5342 21.583V22.333ZM26.334 19.5332L27.084 19.5332C27.0838 17.5727 25.4948 15.9834 23.5342 15.9834V16.7334V17.4834C24.6662 17.4834 25.5839 18.4011 25.584 19.5333L26.334 19.5332Z" fill="#0A0F13"/>
</svg>
