<svg width="48" height="48" viewBox="0 0 48 48" fill="none" xmlns="http://www.w3.org/2000/svg">
<path d="M15.1787 12.0059C15.2731 12.005 15.5491 11.9868 15.6309 12.0205C15.6782 12.0401 15.6067 12.0254 15.6768 12.042C15.764 12.0625 15.8769 12.031 15.958 12.0674C16.0132 12.0922 15.9109 12.0728 16.0186 12.0928C16.0421 12.0971 16.0682 12.0948 16.0918 12.1006C16.1666 12.119 16.0882 12.1012 16.1377 12.124C16.1899 12.1479 16.2459 12.1351 16.2979 12.1611L16.4287 12.2227C16.5509 12.2585 16.4956 12.2252 16.6221 12.2881L16.9736 12.4766C17.0073 12.4934 16.9895 12.4816 17.0176 12.5049L17.1602 12.6025C17.1633 12.6054 17.1722 12.6141 17.1758 12.6172L17.2646 12.6797C17.2675 12.6814 17.2715 12.6839 17.2744 12.6855L17.9932 13.4658L18.1172 13.6865C18.119 13.689 18.122 13.6929 18.124 13.6953L18.2568 13.9814C18.2584 13.9845 18.2612 13.9881 18.2627 13.9912L18.29 14.0547C18.3086 14.0892 18.2935 14.0182 18.3135 14.1045C18.3186 14.1266 18.3201 14.1679 18.3213 14.1914H18.3711C18.3728 14.2946 18.4025 14.2679 18.415 14.3594C18.4201 14.3961 18.4161 14.4222 18.4287 14.459C18.4452 14.5064 18.4526 14.4554 18.457 14.5322H35.9951L36 35.9941L14.8926 36V35.9473C14.8032 35.9457 14.6582 35.9585 14.5781 35.9238C14.4961 35.8882 14.6242 35.925 14.5312 35.9004C14.4557 35.8804 14.4385 35.8925 14.3721 35.8633C14.3368 35.8478 14.3472 35.8554 14.3086 35.8477C14.2432 35.8345 14.248 35.8183 14.1592 35.8027C14.1312 35.7978 14.1541 35.8041 14.1328 35.7979L14.042 35.7559C14.0386 35.7544 14.0346 35.7525 14.0312 35.751L13.8145 35.6523C13.8117 35.6509 13.8084 35.6489 13.8057 35.6475L13.6562 35.5566C13.6533 35.5551 13.6494 35.5534 13.6465 35.5518L13.4922 35.4512C13.4896 35.4495 13.4861 35.4468 13.4834 35.4453L13.4277 35.4258C13.3957 35.4125 13.4152 35.4216 13.3984 35.4102L13.2363 35.2871C13.1951 35.2635 13.1739 35.2203 13.1416 35.1865L12.9961 35.0615C12.9939 35.0594 12.9904 35.0568 12.9883 35.0547L12.877 34.9414C12.8748 34.9392 12.8713 34.9358 12.8691 34.9336L12.7871 34.8359C12.7853 34.8334 12.7831 34.8297 12.7812 34.8271L12.4033 34.2744C12.3636 34.1995 12.3975 34.173 12.3164 34.1709C12.3151 34.1484 12.3151 34.1198 12.3086 34.0977C12.2882 34.028 12.3079 34.0974 12.2832 34.0508C12.2728 34.0311 12.2716 34.0218 12.2598 33.9971C12.2583 33.994 12.2564 33.9903 12.2549 33.9873C12.2534 33.9844 12.2505 33.9803 12.249 33.9775C12.2475 33.9749 12.2445 33.9714 12.2432 33.9688C12.2354 33.954 12.2397 33.9731 12.2295 33.9404L12.2031 33.8447C12.1938 33.827 12.1881 33.8181 12.1855 33.8145C12.1632 33.7545 12.174 33.6993 12.1445 33.6357L12.0859 33.4199C12.0684 33.3256 12.0557 33.394 12.0488 33.3018C12.0453 33.2533 12.0487 33.1784 12.041 33.1338C12.0249 33.0397 12.0319 33.1058 12.0205 33.0811C12.015 33.0691 12.0116 33.0886 12.0068 33.0312C11.9935 32.8687 12.0039 32.6989 12.0039 32.5361V15.4844C12.0039 15.3221 11.9884 14.9839 12.0254 14.9014C12.0561 14.8338 12.0298 14.714 12.0596 14.6455C12.0735 14.6136 12.0768 14.67 12.0908 14.5088L12.1445 14.3545C12.171 14.2975 12.1638 14.2475 12.1826 14.1826C12.2069 14.0992 12.1723 14.2122 12.208 14.1367C12.2265 14.0976 12.2221 14.0721 12.2598 13.9932C12.2614 13.9898 12.2631 13.9858 12.2646 13.9824C12.2708 13.9688 12.2702 13.9638 12.2773 13.9492C12.2788 13.9463 12.2807 13.9423 12.2822 13.9395C12.2837 13.9368 12.2865 13.9333 12.2881 13.9307C12.295 13.9184 12.3 13.9093 12.3037 13.9033C12.318 13.8673 12.3147 13.8558 12.3154 13.8193C12.3948 13.8174 12.3642 13.7955 12.4092 13.7061C12.4106 13.7032 12.4117 13.6993 12.4131 13.6963L12.4648 13.5957C12.4663 13.5925 12.4673 13.588 12.4688 13.585L12.5127 13.5254C12.5479 13.4849 12.5604 13.4217 12.6025 13.375L13.2285 12.71C13.2309 12.708 13.2347 12.7049 13.2373 12.7031L13.3027 12.666C13.3051 12.6641 13.3082 12.6602 13.3105 12.6582L13.3574 12.6152C13.4116 12.5661 13.478 12.5481 13.5312 12.5039C13.5346 12.5011 13.5452 12.4927 13.5488 12.4902L13.8242 12.333C13.8271 12.3311 13.8308 12.3288 13.834 12.3271C13.8524 12.3172 13.8821 12.3132 13.9023 12.3037C13.9051 12.3024 13.9084 12.3002 13.9111 12.2988C13.9139 12.2974 13.9172 12.2944 13.9199 12.293C13.9228 12.2914 13.9267 12.2886 13.9297 12.2871L14.1123 12.2002C14.1548 12.1805 14.1944 12.1894 14.2363 12.1709C14.311 12.1379 14.2 12.1703 14.2822 12.1465L14.3809 12.1211C14.428 12.0976 14.5103 12.1 14.5693 12.0713C14.6321 12.0407 14.7466 12.0512 14.8203 12.0459C14.9411 12.0371 14.7857 12.0094 15.1787 12.0059ZM18.5205 15.9453C18.5 16.3005 18.5166 16.6985 18.5166 17.0586V31.6807C18.5166 31.7983 18.5401 33.119 18.4912 33.2236C18.4493 33.3133 18.4762 33.335 18.4609 33.4512C18.4442 33.578 18.4459 33.4362 18.4219 33.5557C18.4121 33.6042 18.4225 33.6336 18.4033 33.6748C18.3906 33.7021 18.3779 33.6614 18.3721 33.7988H18.3213C18.3166 33.8863 18.295 33.9359 18.2568 34.0088C18.2276 34.0646 18.2548 33.9955 18.2354 34.0449L18.1924 34.1816L18.1729 34.2246L18.1455 34.2705L18.124 34.2949L18.082 34.373C18.0488 34.437 18.0256 34.5062 17.9971 34.5293C17.9618 34.5583 18.0509 34.5462 17.9453 34.5498V34.585L34.5898 34.5908V15.9453H18.5205ZM15.3896 30.8877C14.9554 30.8842 15.1196 30.9108 14.9844 30.9248C14.9479 30.9286 14.8995 30.9246 14.8623 30.9297C14.761 30.9438 14.8424 30.9507 14.6826 30.9766C14.6087 30.9885 14.6324 30.9684 14.627 31.0186C14.5969 31.019 14.5797 31.0163 14.5498 31.0244L14.3516 31.1396C14.2884 31.1736 14.2576 31.1575 14.252 31.2168H14.1855V31.2578H14.1367C14.1289 31.3673 14.067 31.2422 14.0576 31.3545H14.0117V31.3984H13.9648V31.4434H13.9209V31.5049H13.877V31.5508C13.7369 31.5527 13.8807 31.6215 13.7656 31.6309V31.6807C13.6591 31.6937 13.7816 31.7566 13.6768 31.7646V31.8184H13.6377C13.6367 31.8547 13.6408 31.8635 13.626 31.8994C13.5908 31.9846 13.6657 31.8266 13.6084 31.9268L13.5469 32.0586C13.5156 32.1837 13.4968 32.1655 13.4902 32.3369H13.4414C13.4355 32.6326 13.4346 32.8804 13.4453 33.1768H13.4941C13.4948 33.1964 13.4953 33.2558 13.499 33.2725C13.5138 33.3391 13.4809 33.3082 13.5381 33.3164C13.5396 33.3949 13.5524 33.4365 13.5742 33.4775L13.5889 33.5098L13.6084 33.5508C13.6463 33.6227 13.6089 33.6356 13.6768 33.6426V33.6973H13.7158C13.7187 33.7754 13.7075 33.7889 13.7656 33.7959V33.8457C13.8807 33.8551 13.7373 33.9239 13.877 33.9258V33.9717H13.9209V34.0186H13.9648V34.0635H14.0117V34.1221H14.0576C14.0668 34.2345 14.1281 34.11 14.1357 34.2188H14.1865V34.2598H14.252C14.2581 34.3264 14.2617 34.2885 14.3135 34.3145L14.4395 34.3828C14.4959 34.4121 14.5009 34.428 14.5635 34.4404C14.5869 34.445 14.6033 34.443 14.627 34.4434V34.4941C14.7802 34.5028 14.8067 34.5445 14.9551 34.5508C15.0493 34.5548 15.0017 34.5735 15.0879 34.5869H15.4639C15.5676 34.5706 15.4678 34.586 15.5234 34.5625C15.5509 34.5509 15.5597 34.5521 15.5977 34.5498C15.8519 34.5344 15.7389 34.5034 15.9248 34.4941C15.9279 34.404 15.9206 34.4681 16.0049 34.4258C16.0435 34.4064 16.0467 34.3944 16.126 34.3926C16.1329 34.3328 16.1402 34.3652 16.2275 34.3193C16.2306 34.3177 16.2342 34.315 16.2373 34.3135C16.2858 34.2892 16.2927 34.3267 16.2979 34.2588H16.3486V34.2178H16.3984C16.4034 34.1594 16.4143 34.167 16.4922 34.1631V34.1201H16.5391V34.0615H16.585V34.0156H16.6289V33.9697C16.7409 33.9619 16.6189 33.8996 16.7275 33.8916V33.8428H16.7686V33.792C16.8288 33.7864 16.8158 33.7717 16.8184 33.6934H16.873V33.6387C16.9408 33.6335 16.8947 33.64 16.9316 33.5674C16.9331 33.5644 16.935 33.5605 16.9365 33.5576C16.938 33.5549 16.9409 33.5516 16.9424 33.5488L16.9629 33.4951C16.9681 33.4737 16.9649 33.4689 16.9746 33.4453C16.9959 33.3938 17.0106 33.3741 17.0117 33.3115C17.0874 33.3039 17.0371 33.2175 17.0684 33.1475C17.0853 33.1097 17.088 33.1706 17.0967 33.0625L17.1016 32.5205C17.1003 32.4858 17.0996 32.4319 17.0957 32.3994C17.0828 32.2926 17.0904 32.3781 17.0684 32.3291C17.0292 32.2421 17.0615 32.2075 17.0283 32.1436L17.0088 32.1016C17.0073 32.0978 17.0065 32.0926 17.0049 32.0889L16.9629 31.9814C16.9419 31.8961 16.9151 31.9177 16.9121 31.8223H16.873V31.7686C16.7397 31.766 16.8828 31.6953 16.7686 31.6846V31.6338H16.7275V31.584C16.6188 31.5762 16.741 31.5149 16.6299 31.5068V31.4453H16.585V31.4004H16.5391V31.3564H16.4922V31.3125C16.4153 31.3088 16.4041 31.317 16.3994 31.2588H16.3496V31.2178H16.2979C16.2921 31.1426 16.3099 31.1986 16.2598 31.1719L16.1465 31.1172C16.1195 31.0969 16.1279 31.1605 16.126 31.0684C16.0322 31.0662 15.9646 31.0096 15.9053 30.9873C15.8806 30.9781 15.8761 30.9813 15.8535 30.9766C15.7487 30.9547 15.8205 30.9659 15.7793 30.9473C15.7259 30.9232 15.6354 30.9335 15.5684 30.9258C15.4939 30.9171 15.4952 30.8886 15.3896 30.8877ZM12.1855 33.8145C12.186 33.8157 12.186 33.8171 12.1865 33.8184C12.208 33.8727 12.1753 33.7998 12.1855 33.8145ZM32.5205 18.0078L32.5225 30.5977L32.1982 30.6094C32.1887 30.6621 32.2221 30.6312 32.1514 30.6436L31.9092 30.6514C31.7795 30.6557 31.8192 30.6523 31.7754 30.6738C31.7516 30.6855 31.7122 30.6947 31.6416 30.6973V30.7471C31.4724 30.7543 31.5134 30.7552 31.5098 30.7949C31.3884 30.7974 31.4184 30.8111 31.3867 30.8281C31.3097 30.8695 31.3211 30.8168 31.3154 30.8867H31.2617V30.9268H31.2119C31.2045 31.0374 31.1432 30.9112 31.1328 31.0234H31.0713V31.0664H31.0254V31.127H30.9805V31.1738H30.9375V31.2227C30.8286 31.2308 30.9502 31.293 30.8447 31.3037V31.3564C30.74 31.3656 30.8606 31.4283 30.7588 31.4434C30.7566 31.5327 30.7728 31.5474 30.7002 31.5498C30.6984 31.5823 30.6957 31.6202 30.6914 31.6523C30.6803 31.7344 30.6227 31.7988 30.6123 31.8623C30.598 31.9498 30.5964 32.1513 30.5957 32.2471C30.543 32.2567 30.575 32.223 30.5625 32.2939L30.5537 32.5166L20.6709 32.5244L20.6699 18.0938L20.6709 18.0078H32.5205ZM22.0703 19.4023L22.0664 26.1982H27.1826L27.1846 25.0703H28.5898V29.3027H27.1826C27.1828 29.004 27.2015 27.8104 27.1719 27.6074L22.0723 27.6084L22.0732 31.1299H29.3906V31.0605C29.4715 31.0532 29.3914 31.0529 29.46 30.9277L29.499 30.8457C29.5615 30.728 29.4937 30.7612 29.5645 30.7529L29.5752 30.6514H29.6299V30.5977C29.7332 30.5875 29.6135 30.5248 29.7188 30.5146V30.4629C29.8247 30.4527 29.7033 30.3909 29.8125 30.3828V30.3184H29.8545V30.2705H29.8965V30.2227H29.9395V30.1768H29.999V30.1309H30.0439V30.0859H30.0879V30.041H30.1338V29.9971H30.1807V29.9395H30.2285V29.8965H30.2764V29.8545H30.3262V29.8135C30.4024 29.8098 30.4153 29.8189 30.4209 29.7617H30.4746C30.4837 29.6583 30.5451 29.7752 30.5557 29.6729H30.6113C30.6196 29.5633 30.6932 29.6996 30.6973 29.5713C30.7282 29.5705 30.7354 29.5743 30.7666 29.5645C30.8163 29.5487 30.8672 29.4975 30.9639 29.4746C31.0721 29.4489 30.9663 29.4312 31.126 29.4277L31.1299 19.4023H28.5938L28.5859 23.4287H24.0059L24.002 23.3428V22.0186H27.1787L27.168 19.4023H22.0703ZM15.0449 13.418C15.0219 13.4286 15.0443 13.4259 15.0088 13.4346C14.9437 13.4503 14.8641 13.4454 14.7979 13.4473V13.4961C14.6981 13.5002 14.6336 13.4833 14.626 13.5459C14.5142 13.5479 14.536 13.5638 14.4824 13.5889L14.4609 13.5967C14.4577 13.5981 14.4534 13.6 14.4502 13.6016L14.2812 13.6885C14.2478 13.7094 14.2589 13.6553 14.252 13.7295H14.1865L14.1855 13.7705H14.1367C14.1286 13.8871 14.0598 13.7425 14.0576 13.8828H14.0117V13.9268H13.9648V13.9717H13.9209V14.0176H13.877V14.0645C13.7372 14.0664 13.8808 14.1352 13.7656 14.1445V14.1943H13.7246C13.7223 14.2702 13.7366 14.2884 13.6768 14.293V14.3477C13.6125 14.3544 13.6409 14.3776 13.6133 14.4307C13.6118 14.4334 13.6098 14.4368 13.6084 14.4395L13.4961 14.748C13.4929 14.7759 13.4922 14.8113 13.4902 14.8398C13.4321 14.8769 13.4377 14.8262 13.4365 15.0146C13.3769 15.0185 13.402 15.0577 13.4004 15.1846C13.3856 16.3639 13.3994 17.5443 13.3994 18.7236V30.042H13.4951V30.002H13.5479C13.5491 29.9201 13.5415 29.9719 13.7168 29.876L13.7461 29.8594C13.8217 29.8228 13.8016 29.8754 13.8076 29.8066C13.8326 29.8062 13.8473 29.8087 13.8721 29.8037C13.9362 29.7907 13.9263 29.7795 13.9844 29.752C14.0776 29.7078 14.1394 29.6699 14.251 29.668C14.2579 29.6099 14.2663 29.627 14.4258 29.6201V29.5703C14.4634 29.569 14.6177 29.5618 14.6436 29.5527C14.7035 29.5316 14.6032 29.5365 14.7266 29.5205C14.7596 29.5162 14.8136 29.5167 14.8486 29.5156C15.0188 29.5104 14.9591 29.4917 15.042 29.4795C15.1691 29.4609 15.3937 29.4713 15.5254 29.4785C15.6467 29.4851 15.5858 29.5141 15.7178 29.5176C16.0229 29.5255 15.8854 29.5558 16.1543 29.5742C16.1911 29.636 16.1303 29.6003 16.2002 29.623C16.2386 29.6355 16.2494 29.6245 16.2891 29.6426C16.3319 29.6621 16.2547 29.6504 16.3652 29.6719C16.4423 29.6867 16.4283 29.6572 16.4336 29.7148C16.5458 29.7169 16.5205 29.7253 16.5488 29.7412L16.6221 29.7744C16.625 29.7759 16.6281 29.7788 16.6309 29.7803C16.6335 29.7817 16.637 29.7837 16.6396 29.7852L16.6807 29.8047C16.684 29.8061 16.6881 29.8081 16.6914 29.8096C16.6947 29.8111 16.699 29.8119 16.7021 29.8135L16.7305 29.8301C16.7898 29.8618 16.8078 29.8342 16.8164 29.8916C16.885 29.8938 16.8985 29.909 16.9326 29.9277C17.0131 29.9719 17.0018 29.9131 17.0029 30.0029H17.0557L17.1016 30.043L17.1055 15.2744C17.1054 15.1989 17.1071 14.947 17.0918 14.8877C17.073 14.8154 17.0702 14.8632 17.0518 14.7344C17.0377 14.6366 17.0077 14.6764 17.0059 14.5654C16.9536 14.5594 16.9661 14.4855 16.918 14.3896C16.8924 14.3384 16.9464 14.3572 16.873 14.3516V14.2969C16.7999 14.2955 16.8127 14.2906 16.8096 14.1982H16.7686V14.1475H16.7275V14.0977C16.6189 14.0898 16.741 14.0283 16.6289 14.0205V13.9746H16.585V13.9287H16.5391V13.8848H16.4922V13.8262C16.4154 13.8222 16.4041 13.8304 16.3994 13.7725H16.3486V13.7314H16.2979C16.292 13.6541 16.302 13.7101 16.2695 13.6895C16.2654 13.6871 16.2521 13.6827 16.248 13.6807C16.2449 13.6791 16.2404 13.6783 16.2373 13.6768L16.2178 13.665L16.1992 13.6543C16.1441 13.6256 16.1334 13.6628 16.126 13.5977C16.0771 13.5966 16.0713 13.6009 16.0312 13.5811L15.79 13.501V13.4521C15.7439 13.4504 15.5639 13.4424 15.5322 13.4316C15.4207 13.3938 15.4619 13.4014 15.2988 13.4004L15.0449 13.418Z" fill="#0A0F13"/>
</svg>
