<svg width="160" height="180" viewBox="0 0 160 180" fill="none" xmlns="http://www.w3.org/2000/svg">
<path d="M48.4882 34.7191C43.4415 34.2584 34.725 31.9553 29.2196 30.1126C26.008 29.1913 24.6317 28.7306 21.8789 29.652C19.1262 30.5733 17.291 31.0341 16.3734 29.652C15.4559 28.2698 19.585 26.8878 18.6674 25.9664C17.7498 25.0451 14.0781 25.9664 12.243 26.4271C10.4078 26.8878 9.03144 25.5056 10.8666 24.1236C12.7018 22.7416 17.2905 19.9775 21.4196 21.8202C25.5487 23.6629 26.4663 24.1236 35.1833 24.1236C43.9003 24.1236 46.653 24.1238 51.2409 26.4271M48.4882 34.7191C48.947 33.7978 49.4058 32.4157 50.3233 31.0337C51.2409 29.6517 52.1585 26.8876 51.2409 26.4271M48.4882 34.7191C48.0294 35.6404 48.4882 36.1011 49.8646 37.0225C51.2409 37.9438 56.2876 40.7079 57.2052 41.6292C58.1228 42.5506 58.1228 43.0112 57.664 44.3933C57.2052 45.7753 57.2052 53.6067 58.1228 62.8202C59.0404 72.0337 59.0404 80.7865 58.5816 84.9326C58.4629 86.0051 59.0196 86.831 59.9579 87.4661M51.2409 26.4271C49.8646 25.7824 54.5357 24.5843 62.0641 27.809M93.4496 50.8427C92.685 53.1461 90.8804 58.9506 89.7793 63.7416C88.4029 69.7303 89.3205 74.7978 89.7793 76.6404C90.1315 78.0549 90.7539 80.8265 89.7793 82.6634M93.4496 50.8427L88.8617 49M93.4496 50.8427C94.3672 51.1498 96.6611 52.0405 98.4963 53.1461C100.79 54.5281 101.249 53.6067 101.249 53.1461C101.249 52.9895 101.355 52.0349 101.729 50.8427M108.131 45.3146C109.507 45.3146 108.59 43.4719 105.378 41.1685C102.167 38.8652 89.3205 29.191 84.2738 28.2697C81.0623 27.809 77.8507 28.2697 76.9332 28.7303M108.131 45.3146C104.194 45.3146 102.456 48.5268 101.729 50.8427M108.131 45.3146C110.884 45.7753 115.472 53.1461 116.848 56.8315C118.224 60.5169 120.977 69.2697 121.895 70.6517C122.812 72.0337 124.189 74.3371 122.812 76.6404C122 77.8819 121 78.1795 121 78.1795M76.9332 28.7303C75.5568 30.1126 75.098 33.3371 68.6749 33.3371C65.4007 33.3371 63.3186 30.8231 62.0641 27.809M76.9332 28.7303C77.3319 28.1964 77.9906 26.9954 78.6081 25.5056M61.5078 13.9888C60.6804 15.9101 60.4167 17.9452 60.4167 19.5169C60.4167 21.5494 60.8578 24.9104 62.0641 27.809M61.5078 13.9888C62.8629 10.8417 65.7303 8 71.4277 8C80.6035 8 80.1447 17.2135 80.1447 19.0562C80.1447 21.14 79.4113 23.5673 78.6081 25.5056M61.5078 13.9888C61.7931 15.3708 62.7107 16.2921 66.8398 15.3708C70.9689 14.4494 72.3453 13.9888 73.7216 14.9101C75.098 15.8315 74.1804 18.1348 76.0156 18.1348C77.8507 18.1348 78.3095 19.5169 77.392 20.8989C76.4744 22.2809 76.6126 26.8877 78.6081 25.5056M101.729 50.8427C101.477 51.764 101.708 52.6854 103.084 53.6067C104.461 54.5281 111.801 65.5843 114.095 69.2697C116.389 72.9551 114.095 77.1011 115.93 78.4831C116.368 78.8127 116.91 79.0112 117.5 79.0914C118.647 79.1437 119.136 78.9417 119.333 78.6433M118.224 76.1798C118.549 76.1798 119.335 76.9648 119.439 77.8819C119.465 78.1456 119.48 78.4211 119.333 78.6433M120.518 74.3371C121.239 74.6988 122.059 75.6288 121.895 76.9038C121.751 77.4136 121.456 77.8646 121 78.1795M59.9579 87.4661C62.6469 89.2862 68.4695 89.5393 70.5101 89.5393C73.2628 89.5393 77.8507 89.0787 88.4029 84.0112C89.0427 83.69 89.4842 83.2196 89.7793 82.6634M59.9579 87.4661C57.2052 89.5393 50.7821 102.438 48.947 109.809M48.947 109.809C48.4882 112.112 48.4882 113.955 47.5706 115.337C46.653 116.719 45.7354 122.247 46.653 128.697M48.947 109.809C53.9937 109.809 63.3772 114.876 65.7967 117.64M46.653 128.697C50.3233 129.157 57.2052 130.539 58.5816 131M46.653 128.697C47.5706 134.685 48.947 148.045 48.947 154.955C48.947 155.417 49.0047 155.821 49.12 156.167M58.5816 131C58.5816 128.697 63.1695 121.326 65.4634 118.101C65.5657 117.957 65.6771 117.804 65.7967 117.64M58.5816 131C58.7345 134.365 59.0404 142.02 59.0404 145.721M109.966 98.7528C115.013 103.82 101.708 110.27 97.1199 111.191C96.7916 111.257 96.4868 111.304 96.2023 111.334M109.966 98.7528C104.919 93.6854 91.6145 83.1582 89.7793 82.6634M109.966 98.7528C110.884 99.6742 112.994 101.885 114.095 103.36C115.472 105.202 115.472 104.281 115.93 103.82M65.7967 117.64C68.36 114.145 74.7006 106.399 76.0156 102.438C77.392 104.742 81.0623 107.045 88.4029 108.427C92.2366 109.282 92.5109 111.726 96.2023 111.334M96.2023 111.334C98.9551 114.416 106.296 121.326 111.342 122.708C116.389 124.09 120.518 123.169 123.73 119.483C125.008 118.016 125.778 116.403 126.154 114.876M115.93 103.82C122.812 103.82 124.189 107.506 125.565 109.348C126.393 110.457 126.723 112.568 126.154 114.876M115.93 103.82C116.504 102.235 119.313 99.2447 126.024 99.1858M126.024 99.1858C126.465 99.1819 126.924 99.1907 127.4 99.2135C127.767 99.2135 126.635 99.195 126.024 99.1858ZM126.024 99.1858C125.871 97.1988 126.574 93.3169 130.612 93.6854C135.658 94.1461 137.952 95.9888 141.623 95.9888C145.293 95.9888 152.274 98.2921 150.798 103.82C149.323 109.348 143.458 107.045 141.164 106.124C139.329 105.202 133.719 105.202 132.624 105.663M126.154 114.876C127.487 112.727 130.428 108.151 131.529 107.045C131.878 106.695 132.285 106.224 132.624 105.663M130.612 99.1858C134.038 101.574 133.626 104.008 132.624 105.663M60.8755 144.018L62.7107 146.202M60.8755 144.018C63.1898 142.191 66.0316 141.007 69.1337 140.734M60.8755 144.018C60.2194 144.536 59.6056 145.106 59.0404 145.721M62.7107 146.202L60.4167 150.809M62.7107 146.202L68.6749 144.018M60.4167 150.809L55.0181 154.494M60.4167 150.809L65.0046 154.034M55.0181 154.494C54.9475 155.099 54.9112 155.714 54.9112 156.337C54.9112 156.737 54.9262 157.134 54.9556 157.527M55.0181 154.494L59.0404 160.944M55.0181 154.494C55.411 151.128 56.8672 148.088 59.0404 145.721M59.0404 160.944H63.6283M59.0404 160.944L57.8941 165.551M63.6283 160.944L65.0046 154.034M63.6283 160.944L67.7574 163.708M65.0046 154.034L70.5101 152.191M70.5101 152.191L72.8041 147.124M70.5101 152.191L75.5568 156.798M72.8041 147.124L68.6749 144.018M72.8041 147.124L78.7683 148.045M68.6749 144.018C68.6749 143.554 68.9808 141.636 69.1337 140.734M69.1337 140.734C69.5872 140.694 70.0463 140.674 70.5101 140.674C74.8273 140.674 78.7349 142.435 81.5592 145.281M78.7683 148.045L81.5592 145.281M78.7683 148.045L80.1447 154.034M81.5592 145.281C84.3709 148.114 86.109 152.022 86.109 156.337C86.109 156.491 86.1068 156.645 86.1024 156.798M80.1447 154.034L83.3562 157.258M80.1447 154.034L75.5568 156.798M83.3562 157.258L86.1024 156.798M83.3562 157.258L81.9799 162.787M86.1024 156.798C86.0211 159.622 85.1953 162.259 83.815 164.518M81.9799 162.787L83.815 164.518M81.9799 162.787L77.8507 166.011M83.815 164.518C81.7055 167.969 78.301 170.537 74.2807 171.539M77.8507 166.011L74.2807 171.539M77.8507 166.011L73.7216 162.326M74.2807 171.539C73.9456 171.623 73.6062 171.696 73.2628 171.757M73.7216 162.326L75.5568 156.798M73.7216 162.326L67.7574 163.708M67.7574 163.708V168.315M67.7574 168.315L73.2628 171.757M67.7574 168.315L62.3631 169.697M73.2628 171.757C72.3693 171.917 71.4494 172 70.5101 172C67.5242 172 64.7343 171.158 62.3631 169.697M62.3631 169.697C60.7806 168.722 59.3846 167.471 58.2415 166.011M57.8941 165.551C56.2361 163.266 55.1789 160.513 54.9556 157.527M57.8941 165.551C58.0071 165.706 58.1229 165.86 58.2415 166.011M54.9556 157.527C54.482 157.591 53.1678 157.719 51.6997 157.719C50.3247 157.719 49.4647 157.202 49.12 156.167M49.12 156.167C49.2153 156.531 48.8552 157.443 46.653 158.18C43.9003 159.101 36.5596 160.483 36.5596 163.708C36.5596 166.933 39.3124 167.854 43.9003 167.854C48.4882 167.854 50.7821 167.854 53.0761 167.854C55.37 167.854 57.4426 167.393 58.2415 166.011M119.333 78.6433C120.028 78.6433 120.581 78.4688 121 78.1795" stroke="#EFF3F5" stroke-width="1.5" stroke-linecap="round"/>
</svg>
